<?xml version="1.0" encoding="utf-8"?>
<svg version="1.1" id="Layer_1" xmlns="http://www.w3.org/2000/svg" xmlns:xlink="http://www.w3.org/1999/xlink" x="0px" y="0px"
	 viewBox="0 0 256 256" enable-background="new 0 0 256 256" xml:space="preserve">
<path fill="none" stroke="#82368C" stroke-width="3" stroke-miterlimit="10" d="M140.09,128.67c1.91-8.12,2.86-5.14,3.82,1.63
	c0.48,3.31,0.95,7.5,1.55,11.3c0.15,0.96,0.31,1.9,0.47,2.8c0.17,0.87,0.34,1.69,0.53,2.45c0.19,0.75,0.38,1.46,0.59,2.03
	c0.21,0.54,0.43,1.03,0.67,1.3c0.95,1.18,1.67-0.85,2.27-4.71c0.6-3.84,1.07-9.45,1.55-15.18c0.48-5.72,0.95-11.64,1.55-15.97
	c0.6-4.32,1.31-7.02,2.27-6.06c0.24,0.22,0.46,0.66,0.67,1.21c0.21,0.59,0.41,1.3,0.59,2.09c0.19,0.78,0.36,1.68,0.53,2.66
	c0.17,0.97,0.32,1.99,0.47,3.04c0.6,4.28,1.07,9,1.55,13.03c0.48,4.04,0.95,7.41,1.55,9.15c0.3,0.85,0.63,1.42,1,1.49
	c0.19,0.06,0.38,0.05,0.59-0.08c0.21-0.15,0.43-0.35,0.67-0.61c1.91-2.2,2.86-5.66,3.82-9.94c0.48-2.11,0.95-4.31,1.55-6.27
	c0.6-1.96,1.31-3.71,2.27-4.79c0.95-1.06,1.67-0.68,2.27,1.41c0.6,1.98,1.07,5.52,1.55,9.65c0.48,4.14,0.95,8.91,1.55,13.24
	c0.6,4.3,1.31,8.22,2.27,9.89c0.48,0.83,0.89,0.65,1.27-0.19c0.37-0.87,0.7-2.57,1-4.77c0.6-4.41,1.07-11.14,1.55-18.17
	c0.48-7.04,0.95-14.41,1.55-20.15c0.6-5.72,1.31-9.79,2.27-9.85c0.95-0.03,1.67,3.88,2.27,9.56c0.6,5.69,1.07,13.15,1.55,20.43
	c0.48,7.29,0.95,14.4,1.55,19.41c0.6,5.03,1.31,7.89,2.27,6.93c0.95-0.94,1.67-5.03,2.27-9.95c0.6-4.96,1.07-10.94,1.55-16.38
	c0.48-5.46,0.95-10.44,1.55-13.6c0.6-3.19,1.31-4.44,2.27-3.13c0.95,1.35,1.67,4.12,2.27,7.22c0.6,3.05,1.07,6.49,1.55,9.51
	c0.48,3.03,0.95,5.68,1.55,7.31c0.6,1.68,1.31,2.25,2.27,1.71c1.91-1.17,2.86-5.16,3.82-9.02c0.95-3.88,1.91-7.55,3.82-8.74
	c0.95-0.58,1.67-0.07,2.27,1.53c0.6,1.55,1.07,4.2,1.55,7.21c0.48,3.02,0.95,6.46,1.55,9.54c0.6,3.05,1.31,5.81,2.27,6.93
	c0.95,1.1,1.67-0.41,2.27-3.58c0.6-3.17,1.07-7.91,1.55-12.89c0.48-4.97,0.95-10.17,1.55-14.19c0.6-4.01,1.31-6.83,2.27-6.79
	c0.95,0.06,1.67,2.91,2.27,6.9c0.6,3.99,1.07,9.15,1.55,14.08c0.48,4.93,0.95,9.66,1.55,12.83c0.6,3.18,1.31,4.75,2.27,3.62
	c0.24-0.28,0.46-0.69,0.67-1.17c0.21-0.51,0.41-1.1,0.59-1.74c0.37-1.27,0.7-2.76,1-4.36c0.6-3.14,1.07-6.51,1.55-9.18
	c0.48-2.69,0.95-4.61,1.55-5.14c0.6-0.49,1.31,0.68,2.27,3.73"/>
<g>
	<linearGradient id="SVGID_1_" gradientUnits="userSpaceOnUse" x1="140.7848" y1="234.9482" x2="140.7848" y2="17.3036">
		<stop  offset="0" style="stop-color:#404040"/>
		<stop  offset="1" style="stop-color:#1A1A1A"/>
	</linearGradient>
	<polygon fill="url(#SVGID_1_)" points="147.18,234.95 134.39,234.95 134.39,17.3 147.18,18.82 	"/>
	<linearGradient id="SVGID_2_" gradientUnits="userSpaceOnUse" x1="121.2421" y1="234.9482" x2="121.2421" y2="17.3036">
		<stop  offset="0" style="stop-color:#262626"/>
		<stop  offset="1" style="stop-color:#000000"/>
	</linearGradient>
	<polygon fill="url(#SVGID_2_)" points="134.39,234.95 108.09,226.65 108.09,28.68 134.39,17.3 	"/>
</g>
<path fill="none" stroke="#009FE3" stroke-width="3" stroke-miterlimit="10" d="M9.05,81.44c0.95-3.35,1.67-4.64,2.27-4.08
	c0.6,0.59,1.07,2.72,1.55,5.71c0.48,2.97,0.95,6.69,1.55,10.18c0.3,1.78,0.63,3.4,1,4.83c0.37,1.46,0.79,2.56,1.27,3.19
	c0.95,1.3,1.67-0.44,2.27-3.97c0.6-3.51,1.07-8.75,1.55-14.22c0.48-5.47,0.95-11.19,1.55-15.63c0.6-4.43,1.31-7.6,2.27-7.71
	c0.95-0.11,1.67,2.92,2.27,7.36c0.6,4.44,1.07,10.29,1.55,15.98c0.48,5.69,0.95,11.24,1.55,15.11c0.6,3.89,1.31,6.01,2.27,5.18
	c0.95-0.83,1.67-3.98,2.27-7.78c0.6-3.82,1.07-8.34,1.55-12.51c0.48-4.17,0.95-7.99,1.55-10.43c0.3-1.21,0.63-2.14,1-2.62
	c0.37-0.48,0.79-0.55,1.27-0.19c0.95,0.73,1.67,2.67,2.27,5.09c0.6,2.42,1.07,5.33,1.55,8.15c0.95,5.67,1.91,10.78,3.82,11.21
	c0.95,0.24,1.67-0.81,2.27-2.85c0.6-2.03,1.07-5.04,1.55-8.36c0.48-3.31,0.95-6.94,1.55-10.13c0.6-3.22,1.31-6.03,2.27-7.32
	c0.48-0.6,0.89-0.67,1.27-0.07c0.37,0.58,0.7,1.75,1,3.39c0.6,3.28,1.07,8.47,1.55,14.13c0.48,5.66,0.95,11.83,1.55,17.01
	c0.6,5.09,1.31,9.33,2.27,10.25c0.95,0.93,1.67-2.1,2.27-7.31c0.6-5.2,1.07-12.52,1.55-19.95c0.48-7.43,0.95-14.98,1.55-20.63
	c0.6-5.64,1.31-9.41,2.27-9.06c0.95,0.34,1.67,4.56,2.27,10.2c0.6,5.65,1.07,12.79,1.55,19.49c0.48,6.71,0.95,13,1.55,17.11
	c0.3,2.04,0.63,3.53,1,4.31c0.37,0.73,0.79,0.73,1.27-0.05c0.95-1.58,1.67-5.29,2.27-9.26c0.6-4,1.07-8.36,1.55-12.12
	c0.48-3.77,0.95-6.98,1.55-8.81c0.3-0.89,0.63-1.52,1-1.74c0.19-0.11,0.38-0.12,0.59-0.03c0.21,0.05,0.43,0.21,0.67,0.46
	c1.91,1.97,2.86,6.28,3.82,10.12c0.95,3.9,1.91,7.15,3.82,6.73c1.91-0.39,2.86-3.6,3.82-6.73c0.95-3.13,1.91-6.15,3.82-6.33
	c1.91-0.22,2.86,2.79,3.82,6.33c0.95,3.49,1.91,7.47,3.82,8.42c0.95,0.45,1.67-0.23,2.27-1.8c0.6-1.54,1.07-3.96,1.55-6.62
	c0.48-2.67,0.95-5.58,1.55-8.17c0.6-2.56,1.03-5.97,2.27-5.97s2.38,9.43,2.83,14.15"/>
<path fill="none" stroke="#E30613" stroke-width="3" stroke-miterlimit="10" d="M9.05,175.91c0.95-3.35,1.67-4.64,2.27-4.08
	c0.6,0.59,1.07,2.72,1.55,5.71c0.48,2.97,0.95,6.69,1.55,10.18c0.3,1.78,0.63,3.4,1,4.83c0.37,1.46,0.79,2.56,1.27,3.19
	c0.95,1.3,1.67-0.44,2.27-3.97c0.6-3.51,1.07-8.75,1.55-14.22c0.48-5.47,0.95-11.19,1.55-15.63c0.6-4.43,1.31-7.6,2.27-7.71
	c0.95-0.11,1.67,2.92,2.27,7.36c0.6,4.44,1.07,10.29,1.55,15.98c0.48,5.69,0.95,11.24,1.55,15.11c0.6,3.89,1.31,6.01,2.27,5.18
	c0.95-0.83,1.67-3.98,2.27-7.78c0.6-3.82,1.07-8.34,1.55-12.51c0.48-4.17,0.95-7.99,1.55-10.43c0.3-1.21,0.63-2.14,1-2.62
	c0.37-0.48,0.79-0.55,1.27-0.19c0.95,0.73,1.67,2.67,2.27,5.09c0.6,2.42,1.07,5.33,1.55,8.15c0.95,5.67,1.91,10.78,3.82,11.21
	c0.95,0.24,1.67-0.81,2.27-2.85c0.6-2.03,1.07-5.04,1.55-8.36c0.48-3.31,0.95-6.94,1.55-10.13c0.6-3.22,1.31-6.03,2.27-7.32
	c0.48-0.6,0.89-0.67,1.27-0.07c0.37,0.58,0.7,1.75,1,3.39c0.6,3.28,1.07,8.47,1.55,14.13c0.48,5.66,0.95,11.83,1.55,17.01
	c0.6,5.09,1.31,9.33,2.27,10.25c0.95,0.93,1.67-2.1,2.27-7.31c0.6-5.2,1.07-12.52,1.55-19.95c0.48-7.43,0.95-14.98,1.55-20.63
	c0.6-5.64,1.31-9.41,2.27-9.06c0.95,0.34,1.67,4.56,2.27,10.2c0.6,5.65,1.07,12.79,1.55,19.49c0.48,6.71,0.95,13,1.55,17.11
	c0.3,2.04,0.63,3.53,1,4.31c0.37,0.73,0.79,0.73,1.27-0.05c0.95-1.58,1.67-5.29,2.27-9.26c0.6-4,1.07-8.36,1.55-12.12
	c0.48-3.77,0.95-6.98,1.55-8.81c0.3-0.89,0.63-1.52,1-1.74c0.19-0.11,0.38-0.12,0.59-0.03c0.21,0.05,0.43,0.21,0.67,0.46
	c1.91,1.97,2.86,6.28,3.82,10.12c0.95,3.9,1.91,7.15,3.82,6.73c1.91-0.39,2.86-3.6,3.82-6.73c0.95-3.13,1.91-6.15,3.82-6.33
	c1.91-0.22,2.86,2.79,3.82,6.33c0.95,3.49,1.91,7.47,3.82,8.42c0.95,0.45,1.67-0.23,2.27-1.8c0.6-1.54,1.07-3.96,1.55-6.62
	c0.48-2.67,0.95-5.58,1.55-8.17c0.6-2.56,1.03-5.97,2.27-5.97s2.38,9.43,2.83,14.15"/>
</svg>
